<?xml version="1.0" encoding="UTF-8" standalone="no"?>
<!-- Created with Inkscape (http://www.inkscape.org/) -->

<svg
   xmlns:dc="http://purl.org/dc/elements/1.1/"
   xmlns:cc="http://creativecommons.org/ns#"
   xmlns:rdf="http://www.w3.org/1999/02/22-rdf-syntax-ns#"
   xmlns:svg="http://www.w3.org/2000/svg"
   xmlns="http://www.w3.org/2000/svg"
   xmlns:sodipodi="http://sodipodi.sourceforge.net/DTD/sodipodi-0.dtd"
   xmlns:inkscape="http://www.inkscape.org/namespaces/inkscape"
   width="385.444"
   height="201.80074"
   viewBox="0 0 101.98206 53.393113"
   version="1.1"
   id="svg994"
   inkscape:version="0.92.3 (2405546, 2018-03-11)"
   sodipodi:docname="logo.svg">
  <defs
     id="defs988" />
  <sodipodi:namedview
     id="base"
     pagecolor="#ffffff"
     bordercolor="#666666"
     borderopacity="1.0"
     inkscape:pageopacity="0.0"
     inkscape:pageshadow="2"
     inkscape:zoom="0.35"
     inkscape:cx="-410.13514"
     inkscape:cy="-139.09961"
     inkscape:document-units="mm"
     inkscape:current-layer="layer1"
     showgrid="false"
     units="px"
     fit-margin-top="20"
     fit-margin-left="20"
     fit-margin-bottom="20"
     fit-margin-right="20"
     inkscape:window-width="1366"
     inkscape:window-height="705"
     inkscape:window-x="-8"
     inkscape:window-y="-8"
     inkscape:window-maximized="1" />
  <metadata
     id="metadata991">
    <rdf:RDF>
      <cc:Work
         rdf:about="">
        <dc:format>image/svg+xml</dc:format>
        <dc:type
           rdf:resource="http://purl.org/dc/dcmitype/StillImage" />
        <dc:title></dc:title>
      </cc:Work>
    </rdf:RDF>
  </metadata>
  <g
     inkscape:label="Calque 1"
     inkscape:groupmode="layer"
     id="layer1"
     transform="translate(-66.937542,-58.636776)">
    <path
       inkscape:connector-curvature="0"
       style="fill:#f47524;stroke-width:0.26458332"
       d="m 113.39838,98.456773 c -0.73158,2.229907 -1.95765,3.791477 -3.64305,4.344457 -4.69477,1.54173 -11.154835,-5.288487 -14.427466,-15.255607 -3.272102,-9.96871 -2.119312,-19.29844 2.57519,-20.83991 2.778916,-0.91281 6.176696,1.1094 9.165956,4.9792 h 2.16906 c -3.99415,-5.70442 -8.98763,-8.793164 -13.105873,-7.44088 -6.128014,2.01163 -7.995179,13.08471 -4.171156,24.73272 3.823759,11.647487 11.892759,19.457717 18.020239,17.445567 2.88132,-0.94615 4.82018,-3.89573 5.6687,-7.965547 z"
       id="path6" />
    <g
       transform="matrix(0.26458333,0,0,0.26458333,64.237205,1.1070423)"
       id="g18">
      <path
         style="fill:#f47524"
         inkscape:connector-curvature="0"
         d="m 141.565,271.101 v 10.287 5.704 c 0,1.435 -0.243,2.748 -0.735,3.957 -0.51,1.207 -1.272,2.32 -2.271,3.325 v 0.016 c -1.06,1.035 -2.176,1.789 -3.344,2.252 -1.2,0.504 -2.514,0.758 -3.934,0.758 -1.448,0 -2.774,-0.25 -3.971,-0.739 -1.248,-0.509 -2.368,-1.273 -3.344,-2.287 -1.015,-1.005 -1.77,-2.118 -2.273,-3.325 -0.489,-1.209 -0.736,-2.522 -0.736,-3.957 v -5.704 -10.287 h 3.515 v 10.287 5.092 0.59 c 0,0.915 0.173,1.774 0.508,2.597 0.317,0.766 0.813,1.494 1.49,2.185 0.655,0.666 1.388,1.158 2.206,1.483 0.79,0.336 1.652,0.508 2.587,0.508 0.889,0 1.744,-0.172 2.574,-0.508 0.814,-0.339 1.543,-0.83 2.179,-1.483 0.647,-0.61 1.153,-1.338 1.53,-2.185 0.337,-0.823 0.508,-1.682 0.508,-2.597 v -0.59 -5.092 -10.287 z"
         id="path8" />
      <path
         style="fill:#231f20"
         inkscape:connector-curvature="0"
         d="m 162.052,288.703 v -3.1 -14.551 h 3.483 v 26.538 l -16.99,-18.107 v 1.994 15.709 h -3.481 v -26.349 z"
         id="path10" />
      <path
         style="fill:#231f20"
         inkscape:connector-curvature="0"
         d="m 169.03,271.101 h 3.482 v 26.014 h -3.482 z"
         id="path12" />
      <path
         style="fill:#231f20"
         inkscape:connector-curvature="0"
         d="m 193.229,271.854 c 1.523,0.64 2.953,1.625 4.286,2.936 1.307,1.311 2.278,2.733 2.922,4.271 0.648,1.575 0.975,3.271 0.975,5.075 0,1.821 -0.327,3.511 -0.975,5.073 -0.645,1.553 -1.616,2.972 -2.922,4.269 -1.28,1.278 -2.713,2.255 -4.286,2.903 -1.578,0.643 -3.26,0.963 -5.059,0.963 -1.818,0 -3.509,-0.32 -5.073,-0.963 -1.562,-0.643 -2.982,-1.609 -4.27,-2.903 -1.318,-1.308 -2.283,-2.736 -2.902,-4.284 -0.643,-1.521 -0.96,-3.204 -0.96,-5.058 0,-1.844 0.317,-3.529 0.96,-5.054 0.62,-1.527 1.584,-2.966 2.902,-4.303 1.309,-1.317 2.731,-2.285 4.27,-2.925 1.517,-0.644 3.208,-0.966 5.073,-0.966 1.842,0 3.529,0.322 5.059,0.966 z m -8.784,3.271 c -1.179,0.514 -2.218,1.223 -3.117,2.136 -0.95,0.956 -1.665,1.996 -2.132,3.13 -0.466,1.142 -0.701,2.378 -0.701,3.712 0,1.354 0.235,2.588 0.701,3.706 0.454,1.132 1.166,2.172 2.132,3.134 0.899,0.931 1.938,1.638 3.117,2.113 1.163,0.477 2.409,0.721 3.725,0.721 1.308,0 2.537,-0.244 3.692,-0.721 1.157,-0.475 2.197,-1.182 3.132,-2.113 0.958,-0.961 1.669,-2.001 2.132,-3.134 0.492,-1.132 0.734,-2.364 0.734,-3.706 0,-1.319 -0.243,-2.554 -0.734,-3.712 -0.479,-1.118 -1.181,-2.164 -2.119,-3.13 -0.929,-0.926 -1.977,-1.633 -3.146,-2.136 -1.155,-0.478 -2.385,-0.713 -3.692,-0.713 -1.315,0 -2.561,0.235 -3.724,0.713 z"
         id="path14" />
      <path
         style="fill:#231f20"
         inkscape:connector-curvature="0"
         d="m 220.853,288.703 v -3.1 -14.551 h 3.479 v 26.538 l -16.986,-18.107 v 1.994 15.709 h -3.484 v -26.349 z"
         id="path16" />
    </g>
    <g
       transform="matrix(0.26458333,0,0,0.26458333,64.237205,1.1070423)"
       id="g42">
      <path
         style="fill:#f47524"
         inkscape:connector-curvature="0"
         d="m 161.4,358.939 12.628,-19.332 v 26.11 h -3.458 v -14.681 l -9.17,14.088 -9.172,-14.088 v 14.681 h -3.457 v -26.11 z"
         id="path20" />
      <path
         style="fill:#231f20"
         inkscape:connector-curvature="0"
         d="m 198.664,365.718 h -3.705 l -1.911,-4.253 h -5.497 -5.481 l -1.908,4.253 h -3.7 l 11.099,-26.078 z m -11.113,-7.038 h 4.234 c -0.708,-1.62 -1.413,-3.364 -2.114,-5.225 -0.7,-1.866 -1.397,-3.615 -2.093,-5.248 -0.704,1.633 -1.416,3.382 -2.129,5.248 -0.712,1.861 -1.414,3.605 -2.109,5.225 z"
         id="path22" />
      <path
         style="fill:#231f20"
         inkscape:connector-curvature="0"
         d="m 219.661,339.887 v 10.213 5.664 c 0,1.424 -0.239,2.729 -0.729,3.928 -0.506,1.199 -1.263,2.305 -2.26,3.297 v 0.016 c -1.054,1.032 -2.154,1.776 -3.314,2.242 -1.195,0.503 -2.5,0.746 -3.911,0.746 -1.438,0 -2.748,-0.241 -3.941,-0.73 -1.237,-0.506 -2.347,-1.268 -3.318,-2.274 -1.006,-0.992 -1.762,-2.099 -2.261,-3.297 -0.483,-1.199 -0.729,-2.504 -0.729,-3.928 V 350.1 339.887 h 3.495 v 10.213 5.058 0.59 c 0,0.902 0.169,1.755 0.5,2.57 0.314,0.762 0.806,1.485 1.477,2.17 0.646,0.659 1.378,1.152 2.191,1.477 0.786,0.336 1.646,0.505 2.568,0.505 0.883,0 1.731,-0.169 2.555,-0.505 0.81,-0.333 1.533,-0.828 2.17,-1.477 0.638,-0.606 1.143,-1.323 1.514,-2.17 0.333,-0.815 0.503,-1.667 0.503,-2.57 v -0.59 -5.058 -10.213 z"
         id="path24" />
      <path
         style="fill:#231f20"
         inkscape:connector-curvature="0"
         d="m 223.137,339.887 h 8.061 c 1.285,0 2.5,0.226 3.647,0.677 1.09,0.431 2.063,1.042 2.919,1.859 0.88,0.888 1.492,1.739 1.838,2.551 0.371,0.852 0.557,1.862 0.557,3.04 v 0.73 c 0,0.892 -0.135,1.718 -0.399,2.47 -0.255,0.714 -0.647,1.461 -1.18,2.241 -0.455,0.622 -0.883,1.083 -1.288,1.366 -0.381,0.294 -0.915,0.577 -1.598,0.839 l -1.215,0.487 0.716,1.115 5.451,8.456 h -4.31 l -5.886,-9.052 h -3.823 v 9.052 h -3.473 z m 8.582,13.32 0.018,0.024 c 0.705,0 1.322,-0.12 1.855,-0.35 0.476,-0.223 0.968,-0.588 1.478,-1.099 0.521,-0.519 0.891,-1.075 1.113,-1.665 0.224,-0.538 0.329,-1.175 0.329,-1.93 0,-0.68 -0.104,-1.308 -0.329,-1.875 -0.21,-0.486 -0.577,-1.007 -1.096,-1.564 v -0.016 c -0.475,-0.461 -1.097,-0.822 -1.876,-1.078 -0.729,-0.244 -1.514,-0.365 -2.359,-0.365 h -3.164 -1.075 v 1.093 7.734 1.077 h 1.075 l 1.302,0.014 h 0.867 z"
         id="path26" />
      <path
         style="fill:#231f20"
         inkscape:connector-curvature="0"
         d="m 264.233,365.718 h -3.696 l -1.911,-4.253 h -5.498 -5.483 l -1.914,4.253 h -3.693 l 11.096,-26.078 z m -11.105,-7.038 h 4.229 c -0.709,-1.62 -1.411,-3.364 -2.109,-5.225 -0.7,-1.866 -1.399,-3.615 -2.098,-5.248 -0.706,1.633 -1.414,3.382 -2.127,5.248 -0.708,1.861 -1.413,3.605 -2.105,5.225 z"
         id="path28" />
      <path
         style="fill:#231f20"
         inkscape:connector-curvature="0"
         d="m 276.095,339.715 h 0.78 c 0.916,0 1.792,0.084 2.625,0.259 0.877,0.184 1.697,0.438 2.448,0.763 0.775,0.333 1.531,0.747 2.26,1.235 0.323,0.218 0.706,0.499 1.145,0.848 l -2.468,2.485 c -0.706,-0.569 -1.475,-1.029 -2.309,-1.389 -1.124,-0.472 -2.345,-0.712 -3.662,-0.712 -1.358,0 -2.588,0.241 -3.685,0.712 -1.125,0.463 -2.161,1.169 -3.11,2.117 -0.938,0.96 -1.64,1.999 -2.101,3.108 -0.475,1.166 -0.713,2.402 -0.713,3.683 0,1.299 0.238,2.528 0.713,3.684 0.461,1.122 1.164,2.157 2.101,3.11 0.938,0.951 1.976,1.657 3.11,2.118 1.159,0.474 2.386,0.712 3.685,0.712 1.017,0 2.006,-0.153 2.964,-0.463 0.907,-0.283 1.778,-0.728 2.628,-1.342 0.68,-0.511 1.27,-1.069 1.771,-1.686 0.521,-0.625 0.956,-1.299 1.304,-2.03 l 0.729,-1.545 h -1.72 -6.895 v -3.215 h 0.293 11.954 c 0.043,1.828 -0.204,3.53 -0.749,5.095 -0.625,1.836 -1.646,3.451 -3.059,4.84 -1.308,1.284 -2.726,2.247 -4.255,2.885 -1.516,0.638 -3.192,0.953 -5.017,0.953 -1.844,0 -3.517,-0.314 -5.023,-0.953 -1.553,-0.638 -2.967,-1.602 -4.235,-2.885 -1.324,-1.307 -2.285,-2.721 -2.886,-4.235 -0.638,-1.532 -0.955,-3.21 -0.955,-5.042 0,-1.819 0.317,-3.493 0.955,-5.037 0.601,-1.506 1.562,-2.917 2.886,-4.253 1.261,-1.289 2.672,-2.255 4.235,-2.901 1.274,-0.545 2.687,-0.867 4.239,-0.955 z"
         id="path30" />
      <path
         style="fill:#231f20"
         inkscape:connector-curvature="0"
         d="m 307.067,339.833 v 3.441 h -10.157 -1.079 v 1.077 5.646 1.093 h 1.079 7.346 v 3.441 h -7.346 -1.079 v 1.08 5.64 1.096 h 1.079 10.157 v 3.436 h -10.157 -4.537 v -25.949 h 14.694 z"
         id="path32" />
      <path
         style="fill:#231f20"
         inkscape:connector-curvature="0"
         d="m 326.595,340.635 c 1.518,0.636 2.937,1.609 4.26,2.917 1.294,1.294 2.26,2.71 2.899,4.238 0.645,1.564 0.97,3.245 0.97,5.037 0,1.808 -0.325,3.491 -0.97,5.042 -0.64,1.538 -1.605,2.949 -2.899,4.235 -1.276,1.273 -2.698,2.24 -4.26,2.885 -1.563,0.638 -3.237,0.953 -5.021,0.953 -1.808,0 -3.488,-0.314 -5.035,-0.953 -1.552,-0.638 -2.963,-1.602 -4.24,-2.885 -1.308,-1.299 -2.269,-2.715 -2.881,-4.255 -0.643,-1.509 -0.956,-3.179 -0.956,-5.021 0,-1.829 0.313,-3.504 0.956,-5.021 0.612,-1.514 1.573,-2.933 2.881,-4.269 1.3,-1.3 2.708,-2.265 4.24,-2.901 1.505,-0.642 3.183,-0.955 5.035,-0.955 1.831,-0.002 3.505,0.311 5.021,0.953 z m -8.72,3.247 c -1.168,0.508 -2.199,1.215 -3.091,2.121 -0.949,0.952 -1.655,1.986 -2.12,3.11 -0.465,1.13 -0.695,2.361 -0.695,3.681 0,1.345 0.23,2.57 0.695,3.682 0.449,1.125 1.164,2.157 2.12,3.11 0.892,0.926 1.923,1.628 3.091,2.099 1.158,0.476 2.395,0.715 3.699,0.715 1.298,0 2.523,-0.239 3.664,-0.715 1.15,-0.471 2.186,-1.172 3.111,-2.099 0.953,-0.953 1.654,-1.985 2.117,-3.11 0.487,-1.122 0.731,-2.351 0.731,-3.682 0,-1.313 -0.244,-2.538 -0.731,-3.681 -0.471,-1.115 -1.174,-2.149 -2.101,-3.11 -0.921,-0.916 -1.964,-1.623 -3.128,-2.121 -1.141,-0.474 -2.366,-0.711 -3.664,-0.711 -1.303,-10e-4 -2.54,0.237 -3.698,0.711 z"
         id="path34" />
      <path
         style="fill:#231f20"
         inkscape:connector-curvature="0"
         d="m 337.155,339.887 h 3.457 v 25.831 h -3.457 z"
         id="path36" />
      <path
         style="fill:#231f20"
         inkscape:connector-curvature="0"
         d="m 352.197,362.107 c 0.512,-0.204 0.977,-0.471 1.387,-0.807 0.413,-0.331 0.749,-0.744 1,-1.228 0.247,-0.487 0.382,-1.011 0.382,-1.562 0.008,-0.463 -0.087,-0.897 -0.288,-1.302 -0.207,-0.4 -0.467,-0.741 -0.789,-1.027 -0.311,-0.283 -0.707,-0.548 -1.167,-0.794 -0.469,-0.244 -0.913,-0.448 -1.34,-0.595 -0.418,-0.154 -0.89,-0.302 -1.397,-0.438 -1.146,-0.317 -2.162,-0.727 -3.051,-1.228 -0.893,-0.498 -1.674,-1.154 -2.344,-1.966 -0.46,-0.548 -0.813,-1.174 -1.066,-1.865 -0.248,-0.692 -0.37,-1.411 -0.37,-2.164 0,-1.02 0.188,-1.977 0.571,-2.883 0.384,-0.907 0.917,-1.701 1.6,-2.386 0.692,-0.691 1.495,-1.223 2.405,-1.604 0.911,-0.388 1.874,-0.579 2.89,-0.579 0.925,0 1.8,0.166 2.64,0.478 0.839,0.32 1.591,0.771 2.257,1.351 1.128,0.966 1.885,2.173 2.287,3.603 l -3.448,0.727 c -0.188,-0.532 -0.495,-1.018 -0.932,-1.464 -0.784,-0.776 -1.707,-1.165 -2.763,-1.165 -0.53,0 -1.038,0.107 -1.512,0.314 -0.481,0.202 -0.908,0.491 -1.266,0.851 -0.367,0.368 -0.656,0.794 -0.862,1.272 -0.207,0.475 -0.313,0.979 -0.313,1.502 0,0.381 0.058,0.737 0.172,1.069 0.116,0.329 0.259,0.613 0.439,0.859 0.178,0.242 0.408,0.47 0.69,0.692 0.28,0.214 0.554,0.393 0.817,0.537 0.263,0.143 0.58,0.292 0.945,0.435 0.363,0.148 0.681,0.264 0.948,0.349 0.268,0.082 0.585,0.18 0.947,0.296 0.367,0.117 0.646,0.209 0.834,0.27 0.635,0.232 1.233,0.492 1.8,0.796 0.566,0.307 1.108,0.665 1.633,1.088 0.524,0.424 0.972,0.881 1.348,1.371 0.375,0.492 0.677,1.051 0.902,1.678 0.228,0.625 0.338,1.278 0.338,1.956 0,1.021 -0.225,1.995 -0.661,2.927 -0.439,0.929 -1.021,1.726 -1.749,2.382 -0.726,0.659 -1.57,1.18 -2.525,1.572 -0.958,0.386 -1.939,0.585 -2.949,0.585 -1.108,0 -2.18,-0.233 -3.215,-0.683 -1.041,-0.448 -1.94,-1.093 -2.719,-1.93 -0.773,-0.829 -1.323,-1.776 -1.653,-2.835 l 3.466,-0.733 c 0.326,0.775 0.875,1.406 1.655,1.903 0.781,0.495 1.593,0.741 2.447,0.741 0.536,-0.037 1.061,-0.159 1.579,-0.366 z"
         id="path38" />
      <path
         style="fill:#231f20"
         inkscape:connector-curvature="0"
         d="m 375.65,339.833 v 3.441 h -10.161 -1.077 v 1.077 5.646 1.093 h 1.077 7.348 v 3.441 h -7.348 -1.077 v 1.08 5.64 1.096 h 1.077 10.161 v 3.436 h -10.161 -4.536 v -25.949 h 14.697 z"
         id="path40" />
    </g>
    <g
       transform="matrix(0.26458333,0,0,0.26458333,64.237205,1.1070423)"
       id="g62">
      <path
         style="fill:#231f20"
         inkscape:connector-curvature="0"
         d="m 186.219,305.319 v 10.444 5.789 c 0,1.456 -0.248,2.792 -0.749,4.012 -0.519,1.228 -1.29,2.361 -2.308,3.375 v 0.016 c -1.074,1.052 -2.205,1.818 -3.39,2.295 -1.224,0.509 -2.55,0.762 -4,0.762 -1.465,0 -2.809,-0.249 -4.027,-0.747 -1.266,-0.521 -2.393,-1.298 -3.391,-2.327 -1.03,-1.013 -1.796,-2.146 -2.309,-3.375 -0.499,-1.22 -0.746,-2.557 -0.746,-4.012 v -5.789 -10.444 h 3.571 v 10.444 5.167 0.601 c 0,0.929 0.169,1.802 0.517,2.634 0.317,0.781 0.824,1.521 1.505,2.218 0.665,0.672 1.408,1.178 2.238,1.51 0.805,0.337 1.685,0.512 2.631,0.512 0.901,0 1.769,-0.175 2.606,-0.512 0.836,-0.346 1.572,-0.851 2.224,-1.51 0.651,-0.618 1.165,-1.356 1.541,-2.218 0.346,-0.832 0.518,-1.705 0.518,-2.634 v -0.601 -5.167 -10.444 h 3.569 z"
         id="path44" />
      <path
         style="fill:#231f20"
         inkscape:connector-curvature="0"
         d="m 207.014,305.319 h 3.534 v 26.41 h -3.534 z"
         id="path46" />
      <path
         style="fill:#231f20"
         inkscape:connector-curvature="0"
         d="m 259.22,331.729 h -3.782 l -1.954,-4.353 h -5.619 -5.605 l -1.947,4.353 h -3.786 l 11.352,-26.656 z m -11.355,-7.192 h 4.326 c -0.722,-1.66 -1.445,-3.444 -2.157,-5.349 -0.721,-1.903 -1.431,-3.692 -2.146,-5.362 -0.716,1.67 -1.441,3.459 -2.173,5.362 -0.725,1.905 -1.448,3.689 -2.157,5.349 z"
         id="path48" />
      <path
         style="fill:#231f20"
         inkscape:connector-curvature="0"
         d="m 265.242,305.319 v 21.809 1.12 h 1.101 10.388 v 3.481 h -15.024 v -26.41 z"
         id="path50" />
      <path
         style="fill:#231f20"
         inkscape:connector-curvature="0"
         d="m 294.241,305.269 v 3.516 h -10.391 -1.101 v 1.1 5.77 1.122 h 1.101 7.515 v 3.512 h -7.515 -1.101 v 1.104 5.771 1.118 h 1.101 10.391 v 3.512 H 283.85 279.22 V 305.27 h 15.021 z"
         id="path52" />
      <path
         style="fill:#f47524"
         inkscape:connector-curvature="0"
         d="M 161.789,331.739 V 305.592 L 148.95,325.25 136.109,305.592 v 23.787 c -0.864,0.093 -1.792,0.392 -2.673,0.929 -2.301,1.395 -3.407,3.782 -2.466,5.333 0.941,1.547 3.567,1.671 5.871,0.278 1.617,-0.984 2.639,-2.454 2.775,-3.782 h 0.006 v -14.925 l 9.328,14.324 9.327,-14.324 v 12.228 c -0.859,0.097 -1.778,0.396 -2.652,0.927 -2.302,1.396 -3.405,3.784 -2.465,5.332 0.942,1.548 3.569,1.673 5.867,0.276 1.626,-0.985 2.651,-2.465 2.786,-3.797 z"
         id="path54" />
      <path
         style="fill:#231f20"
         inkscape:connector-curvature="0"
         d="m 228.295,312.231 c 0.57,1.781 2.747,2.673 4.862,1.997 2.112,-0.68 3.362,-2.67 2.791,-4.452 -0.024,-0.08 -0.071,-0.148 -0.104,-0.223 l 0.044,0.027 c -0.041,-0.087 -0.099,-0.171 -0.148,-0.255 -0.136,-0.263 -0.297,-0.504 -0.498,-0.711 -1.85,-2.132 -5.642,-3.139 -5.642,-3.139 l 0.054,0.035 c -0.291,-0.081 -0.58,-0.168 -0.873,-0.228 -0.884,-0.164 -1.78,-0.249 -2.687,-0.249 h -1.414 c -1.304,0.128 -2.528,0.43 -3.673,0.902 -1.555,0.646 -2.992,1.628 -4.309,2.949 -1.331,1.354 -2.31,2.8 -2.93,4.343 -0.654,1.541 -0.975,3.248 -0.975,5.107 0,1.87 0.32,3.57 0.975,5.104 0.62,1.564 1.599,3.007 2.93,4.326 1.293,1.306 2.73,2.283 4.309,2.934 1.58,0.646 3.28,0.969 5.104,0.969 0.941,0 1.835,-0.09 2.686,-0.265 0.81,-0.153 1.643,-0.41 2.488,-0.781 0.789,-0.329 1.555,-0.744 2.296,-1.25 0.425,-0.284 0.814,-0.571 1.168,-0.865 l -2.508,-2.527 c -0.685,0.578 -1.466,1.047 -2.348,1.413 -1.192,0.481 -2.444,0.725 -3.764,0.725 -1.321,0 -2.567,-0.244 -3.745,-0.725 -1.188,-0.482 -2.237,-1.196 -3.143,-2.139 -0.944,-0.929 -1.66,-1.977 -2.152,-3.143 -0.475,-1.145 -0.708,-2.396 -0.708,-3.762 0,-1.341 0.233,-2.591 0.708,-3.743 h 0.014 c 0.482,-1.166 1.194,-2.222 2.138,-3.163 0.929,-0.929 1.978,-1.646 3.143,-2.155 1.178,-0.483 2.424,-0.723 3.745,-0.723 1.044,0 2.039,0.158 2.988,0.46 -0.825,0.907 -1.177,2.097 -0.822,3.207 z"
         id="path56" />
      <rect
         style="fill:#231f20"
         x="223.00301"
         y="300.06"
         width="1.4859999"
         height="36.341999"
         id="rect58" />
      <path
         style="fill:#231f20"
         inkscape:connector-curvature="0"
         d="m 197.744,327.712 c 0.513,-0.206 0.973,-0.472 1.39,-0.805 0.41,-0.332 0.743,-0.743 0.996,-1.232 0.251,-0.48 0.379,-1 0.379,-1.554 0.009,-0.463 -0.086,-0.899 -0.288,-1.306 -0.202,-0.398 -0.464,-0.74 -0.781,-1.023 -0.317,-0.286 -0.707,-0.548 -1.173,-0.794 -0.465,-0.246 -0.912,-0.445 -1.333,-0.594 -0.423,-0.154 -0.888,-0.301 -1.398,-0.441 -1.141,-0.315 -2.16,-0.721 -3.052,-1.22 -0.888,-0.5 -1.668,-1.153 -2.336,-1.966 -0.462,-0.548 -0.811,-1.17 -1.063,-1.862 -0.25,-0.689 -0.371,-1.409 -0.371,-2.16 0,-1.015 0.188,-1.973 0.57,-2.877 0.378,-0.906 0.915,-1.703 1.599,-2.385 0.691,-0.689 1.488,-1.221 2.401,-1.606 0.912,-0.382 1.871,-0.573 2.887,-0.573 0.921,0 1.8,0.162 2.638,0.479 0.831,0.313 1.582,0.765 2.252,1.345 1.123,0.969 1.884,2.173 2.284,3.603 l -3.443,0.721 c -0.189,-0.531 -0.499,-1.015 -0.935,-1.459 -0.785,-0.773 -1.702,-1.161 -2.759,-1.161 -0.528,0 -1.034,0.104 -1.514,0.306 -0.476,0.207 -0.898,0.491 -1.258,0.855 -0.368,0.365 -0.657,0.791 -0.86,1.269 -0.212,0.475 -0.312,0.98 -0.312,1.503 0,0.377 0.059,0.732 0.171,1.063 0.117,0.331 0.259,0.617 0.437,0.857 0.177,0.241 0.403,0.473 0.687,0.693 0.281,0.212 0.557,0.396 0.819,0.54 0.265,0.143 0.583,0.286 0.946,0.433 0.365,0.145 0.681,0.261 0.945,0.346 0.269,0.082 0.583,0.188 0.951,0.299 0.362,0.116 0.64,0.206 0.83,0.27 0.627,0.225 1.226,0.49 1.793,0.792 0.566,0.305 1.108,0.668 1.633,1.092 0.519,0.419 0.969,0.877 1.347,1.369 0.378,0.491 0.68,1.05 0.9,1.67 0.228,0.628 0.341,1.279 0.341,1.957 0,1.019 -0.224,1.993 -0.665,2.928 -0.438,0.928 -1.021,1.723 -1.745,2.376 -0.729,0.657 -1.565,1.177 -2.522,1.567 -0.955,0.385 -1.94,0.585 -2.948,0.585 -1.101,0 -2.177,-0.229 -3.21,-0.68 -1.035,-0.453 -1.938,-1.095 -2.712,-1.926 -0.776,-0.826 -1.323,-1.775 -1.654,-2.833 l 3.463,-0.732 c 0.323,0.778 0.875,1.407 1.654,1.903 0.775,0.495 1.595,0.739 2.445,0.739 0.536,-0.039 1.06,-0.165 1.574,-0.371 z"
         id="path60" />
    </g>
    <path
       inkscape:connector-curvature="0"
       style="fill:#f47524;stroke-width:0.26458332"
       d="m 88.651633,75.614763 c -0.208227,3.98278 0.420687,8.63018 1.989667,13.37787 1.412345,4.27566 3.387195,8.03169 5.619485,10.98153 0.285485,0.167207 0.554567,0.332577 0.806979,0.494497 -2.389452,-3.018357 -4.510087,-6.956687 -6.002867,-11.476027 -1.687247,-5.10699 -2.288116,-10.09835 -1.927754,-14.26978 -0.149225,0.28814 -0.311679,0.58659 -0.48551,0.89191 z"
       id="path64" />
    <g
       transform="matrix(0.26458333,0,0,0.26458333,64.237205,1.1070423)"
       id="g70">
      <path
         style="fill:#f47524"
         inkscape:connector-curvature="0"
         d="m 85.745,289.404 c 0.244,13.176 2.714,27.836 7.646,42.762 4.713,14.27 11.087,27.001 18.322,37.463 1.767,0.834 3.458,1.676 5.006,2.515 -7.977,-10.907 -15.025,-24.535 -20.125,-39.978 -5.553,-16.806 -7.991,-33.279 -7.629,-47.666 -0.975,1.587 -2.061,3.231 -3.22,4.904 z"
         id="path66" />
      <path
         style="fill:#f47524"
         inkscape:connector-curvature="0"
         d="m 91.79,332.167 c -4.665,-14.119 -7.124,-27.999 -7.58,-40.609 -10.06,13.794 -26.609,29.844 -53.755,43.493 l 8.354,-2.769 0.932,2.811 -9.535,3.163 v 2.16 l 15.029,-4.985 0.933,2.812 -15.961,5.294 v 2.458 l 7.716,-2.559 0.932,2.811 -8.648,2.869 v 2.442 l 14.313,-4.75 0.934,2.816 -15.246,5.058 v 2.158 l 20.74,-6.882 0.934,2.813 -21.642,7.179 c 36.406,-5.032 62.33,1.169 79.181,8.625 C 102.475,358.312 96.35,345.972 91.79,332.167 Z"
         id="path68" />
    </g>
    <path
       inkscape:connector-curvature="0"
       style="fill:#ffe36c;stroke-width:0.26458332"
       d="m 84.462485,77.916643 c -0.306388,3.53325 0.202142,7.76129 1.631421,12.08775 1.269735,3.84387 3.076046,7.19349 5.110956,9.7536 0.286544,0.17225 0.543983,0.339727 0.766233,0.499267 -2.200539,-2.617787 -4.164806,-6.154207 -5.518414,-10.252867 -1.558661,-4.71646 -2.024856,-9.31862 -1.531409,-13.02781 -0.134672,0.29712 -0.290247,0.6133 -0.458787,0.94006 z"
       id="path72" />
    <path
       inkscape:connector-curvature="0"
       style="fill:#ffe36c;stroke-width:0.26458332"
       d="m 85.479543,75.947353 c -0.355335,4.09284 0.234157,8.99107 1.890184,14.00228 1.470818,4.4532 3.563408,8.33331 5.920316,11.298497 0.331788,0.19949 0.630238,0.39343 0.887413,0.57838 -2.549261,-3.032127 -4.824413,-7.127347 -6.392598,-11.876877 -1.805252,-5.46286 -2.345796,-10.79421 -1.774031,-15.09131 -0.15584,0.34475 -0.336021,0.71094 -0.531284,1.08903 z"
       id="path74" />
    <path
       inkscape:connector-curvature="0"
       style="fill:#f47524;stroke-width:0.26458332"
       d="m 96.465043,87.566793 c -3.004343,-9.09294 -1.889125,-17.6411 2.493169,-19.08863 1.967968,-0.64929 4.260318,0.25135 6.461918,2.25901 -2.31854,-2.31457 -4.76726,-3.38376 -6.851649,-2.68076 -4.382029,1.47929 -5.497513,10.21821 -2.493169,19.51355 3.004344,9.29772 8.992128,15.631847 13.372308,14.155467 0.50429,-0.17092 0.95991,-0.44741 1.37636,-0.80036 -0.30877,0.20426 -0.63526,0.37333 -0.98689,0.48895 -4.38018,1.44542 -10.367703,-4.751387 -13.372047,-13.847227 z"
       id="path76" />
    <path
       inkscape:connector-curvature="0"
       style="fill:#ffe36c;stroke-width:0.26458332"
       d="m 94.636508,87.854653 c -3.387196,-10.25048 -2.129631,-19.88767 2.810404,-21.51935 2.21906,-0.73184 4.803248,0.28363 7.285038,2.54688 -2.61355,-2.60932 -5.374217,-3.8145 -7.724246,-3.02287 -4.940036,1.66767 -6.197336,11.51996 -2.810404,21.99905 3.386402,10.482 10.13698,17.622037 15.0749,15.957547 0.56859,-0.19209 1.08241,-0.5035 1.55152,-0.90197 -0.34793,0.23045 -0.71623,0.42095 -1.11258,0.55113 -4.93765,1.62957 -11.687965,-5.356487 -15.074632,-15.610417 z"
       id="path78" />
  </g>
</svg>
